<?xml version="1.0" encoding="UTF-8"?>
<svg width="33px" height="20px" viewBox="0 0 33 20" version="1.1" xmlns="http://www.w3.org/2000/svg" xmlns:xlink="http://www.w3.org/1999/xlink">
    <!-- Generator: Sketch 40.3 (33839) - http://www.bohemiancoding.com/sketch -->
    <title>american-express</title>
    <desc>Created with Sketch.</desc>
    <defs></defs>
    <g id="Symbols" stroke="none" stroke-width="1" fill="none" fill-rule="evenodd">
        <g id="footer" transform="translate(-1044.000000, -178.000000)">
            <g id="content">
                <g transform="translate(335.000000, 17.000000)">
                    <g id="cols">
                        <g id="payment" transform="translate(600.000000, 132.000000)">
                            <g id="logos" transform="translate(0.000000, 29.000000)">
                                <g id="american-express" transform="translate(109.000000, 0.000000)">
                                    <path d="M29.8,2.02293374e-07 C28.2,3.53289176e-07 11.2601562,-3.20636746e-07 1.8,2.02293374e-07 C1,2.46515064e-07 0.2,0.800000202 0.2,1.6000002 L0.2,17.6000002 C0.199999907,19.2000002 1,20.0000002 2.6,20.0000002 C11.5246419,20.0000002 28.2,20.0000004 29.8,20.0000002 C31.4,20.0000002 32.2,19.2000002 32.2,17.6000002 L32.2,2.4000002 C32.2,0.800000202 31.4,2.02293374e-07 29.8,2.02293374e-07 L29.8,2.02293374e-07 Z" id="Rectangle-1" fill="#306FC5"></path>
                                    <path d="M2.90396568,7.3250672 L2.28420924,5.81486792 L1.66799492,7.3250672 L2.90396568,7.3250672 L2.90396568,7.3250672 Z M16.5571177,6.72370692 C16.4326865,6.79923402 16.2855172,6.80174778 16.1092111,6.80174778 L15.009212,6.80174778 L15.009212,5.9603233 L16.1241794,5.9603233 C16.2819751,5.9603233 16.4466265,5.96740754 16.5535756,6.0286519 C16.6710368,6.0838404 16.7437073,6.2013016 16.7437073,6.36355348 C16.7437073,6.52911894 16.6745789,6.66234828 16.5571177,6.72370692 C16.5571177,6.72370692 16.6745789,6.66234828 16.5571177,6.72370692 L16.5571177,6.72370692 L16.5571177,6.72370692 L16.5571177,6.72370692 Z M24.404395,7.3250672 L23.777783,5.81486792 L23.1545986,7.3250672 L24.404395,7.3250672 L24.404395,7.3250672 L24.404395,7.3250672 L24.404395,7.3250672 L24.404395,7.3250672 Z M9.77658922,8.95969764 L8.84832572,8.95969764 L8.84489786,5.99277368 L7.5319146,8.95969764 L6.73688044,8.95969764 L5.42046932,5.99014564 L5.42046932,8.95969764 L3.57879634,8.95969764 L3.23086892,8.11473104 L1.3455479,8.11473104 L0.994078354,8.95969764 L0.0106263548,8.95969764 L1.63211669,5.17145928 L2.97743606,5.17145928 L4.51745768,8.75813968 L4.51745768,5.17145928 L5.99532084,5.17145928 L7.18033078,7.74132322 L8.26890372,5.17145928 L9.77647496,5.17145928 L9.77647496,8.95969764 L9.77647496,8.95969764 L9.77658922,8.95969764 L9.77658922,8.95969764 L9.77658922,8.95969764 Z M13.4762746,8.95969764 L10.4514199,8.95969764 L10.4514199,5.17145928 L13.4762746,5.17145928 L13.4762746,5.9603233 L11.3569453,5.9603233 L11.3569453,6.6431523 L13.4254281,6.6431523 L13.4254281,7.41967602 L11.3569453,7.41967602 L11.3569453,8.17620394 L13.4762746,8.17620394 L13.4762746,8.95969764 L13.4762746,8.95969764 L13.4762746,8.95969764 L13.4762746,8.95969764 L13.4762746,8.95969764 Z M17.7412136,6.1917036 C17.7412136,6.7956919 17.3380976,7.1077411 17.1031752,7.20143584 C17.3013053,7.27684868 17.4705272,7.41007802 17.5510818,7.520455 C17.6789408,7.70887284 17.7009934,7.8771806 17.7009934,8.21551002 L17.7009934,8.95969764 L16.7876982,8.95969764 L16.7842703,8.48196872 C16.7842703,8.25401628 16.8060943,7.92619894 16.6413287,7.74395124 C16.5090134,7.6107219 16.3073412,7.58181364 15.9813521,7.58181364 L15.0093263,7.58181364 L15.0093263,8.95969764 L14.1039151,8.95969764 L14.1039151,5.17145928 L16.1865664,5.17145928 C16.649327,5.17145928 16.9902845,5.1836853 17.2830234,5.35290714 C17.5694779,5.52212898 17.7412136,5.76916318 17.7412136,6.1917036 C17.7412136,6.1917036 17.7412136,5.76916318 17.7412136,6.1917036 L17.7412136,6.1917036 L17.7412136,6.1917036 L17.7412136,6.1917036 Z M19.1902827,8.95969764 L18.2663612,8.95969764 L18.2663612,5.17145928 L19.1902827,5.17145928 L19.1902827,8.95969764 L19.1902827,8.95969764 L19.1902827,8.95969764 L19.1902827,8.95969764 L19.1902827,8.95969764 Z M29.9089612,8.95969764 L28.6258002,8.95969764 L26.9094726,6.11640502 L26.9094726,8.95969764 L25.0654,8.95969764 L24.7130164,8.11473104 L22.8320374,8.11473104 L22.4901658,8.95969764 L21.4306154,8.95969764 C20.9904786,8.95969764 20.4332234,8.86234652 20.1176322,8.54069934 C19.7994128,8.21905214 19.6338473,7.7833716 19.6338473,7.09448672 C19.6338473,6.53266106 19.7327981,6.0190539 20.121974,5.6131957 C20.414713,5.31085878 20.8731316,5.17145928 21.4971158,5.17145928 L22.373733,5.17145928 L22.373733,5.98317568 L21.515512,5.98317568 C21.1850666,5.98317568 20.998477,6.03230828 20.818743,6.207586 C20.6643752,6.3670956 20.5584544,6.6686327 20.5584544,7.06569272 C20.5584544,7.47155092 20.6391234,7.7641756 20.807431,7.95533572 C20.9468306,8.1052473 21.2001492,8.15072354 21.4384994,8.15072354 L21.8451574,8.15072354 L23.1213484,5.17157354 L24.478094,5.17157354 L26.0111456,8.75471184 L26.0111456,5.17157354 L27.3898294,5.17157354 L28.9814974,7.80988034 L28.9814974,5.17157354 L29.9089612,5.17157354 L29.9089612,8.95969764 L29.9089612,8.95969764 L29.9089612,8.95969764 L29.9089612,8.95969764 L29.9089612,8.95969764 Z M0.00011426188,9.703771 L1.54722011,9.703771 L1.89606163,8.86234652 L2.67704158,8.86234652 L3.024969,9.703771 L6.06901974,9.703771 L6.06901974,9.06047662 L6.3407345,9.70651328 L7.9209763,9.70651328 L8.19269104,9.05087862 L8.19269104,9.703771 L15.7577416,9.703771 L15.7541995,8.3225734 L15.9005689,8.3225734 C16.0030618,8.32611552 16.0329985,8.33559926 16.0329985,8.5048211 L16.0329985,9.703771 L19.945668,9.703771 L19.945668,9.38223808 C20.2612594,9.55134566 20.7521284,9.703771 21.3980508,9.703771 L23.0441074,9.703771 L23.3963768,8.86234652 L24.1773568,8.86234652 L24.5218562,9.703771 L27.6938804,9.703771 L27.6938804,8.90450916 L28.1742372,9.703771 L30.716107,9.703771 L30.716107,4.42030168 L28.2005176,4.42030168 L28.2005176,5.0442858 L27.8482482,4.42030168 L25.266958,4.42030168 L25.266958,5.0442858 L24.9434826,4.42030168 L21.4567814,4.42030168 C20.8731316,4.42030168 20.3600958,4.5017704 19.945668,4.72880876 L19.945668,4.42030168 L17.5395413,4.42030168 L17.5395413,4.72880876 C17.2758249,4.49480042 16.9164713,4.42030168 16.5168975,4.42030168 L7.72638832,4.42030168 L7.13656848,5.78493132 L6.53086626,4.42030168 L3.7620724,4.42030168 L3.7620724,5.0442858 L3.45790726,4.42030168 L1.09657126,4.42030168 L0,6.93234912 L0,9.703771 L0.00011426188,9.703771 L0.00011426188,9.703771 Z M32.2079102,12.4933605 L30.5576258,12.4933605 C30.3928602,12.4933605 30.2833974,12.4995307 30.191188,12.5618034 C30.095665,12.623162 30.0588728,12.7142288 30.0588728,12.8344322 C30.0588728,12.9773739 30.1395416,13.0746107 30.2568886,13.1166591 C30.3524114,13.1499093 30.4550186,13.1596216 30.6058444,13.1596216 L31.0965992,13.1727617 C31.5918102,13.1849877 31.9223698,13.2701128 32.1239276,13.4777266 C32.1606058,13.5066349 32.1826582,13.5390853 32.2079102,13.5715356 L32.2079102,12.4933605 L32.2079102,12.4933605 Z M32.2079102,14.991468 C31.987956,15.3131152 31.5593598,15.4761669 30.979138,15.4761669 L29.230474,15.4761669 L29.230474,14.6636507 L30.9720536,14.6636507 C31.1448176,14.6636507 31.2657066,14.6409126 31.3384916,14.5698417 C31.401564,14.5112253 31.4455548,14.4261002 31.4455548,14.3226932 C31.4455548,14.2123163 31.401564,14.1246774 31.3349494,14.0721169 C31.2692488,14.0143004 31.1736116,13.9880202 31.0159302,13.9880202 C30.1657076,13.9591119 29.1050146,14.0143004 29.1050146,12.8152363 C29.1050146,12.2656366 29.4539704,11.6871287 30.4041722,11.6871287 L32.2077958,11.6871287 L32.2077958,10.9332288 L30.5320312,10.9332288 C30.026308,10.9332288 29.6589562,11.0543464 29.3987818,11.24265 L29.3987818,10.9332288 L26.9200988,10.9332288 C26.5237244,10.9332288 26.05845,11.031494 25.8383816,11.24265 L25.8383816,10.9332288 L21.412105,10.9332288 L21.412105,11.24265 C21.0598356,10.9885316 20.4654452,10.9332288 20.1911026,10.9332288 L17.271483,10.9332288 L17.271483,11.24265 C16.9927982,10.9727634 16.3730418,10.9332288 15.995292,10.9332288 L12.7277451,10.9332288 L11.9800153,11.7424315 L11.2797043,10.9332288 L6.39866526,10.9332288 L6.39866526,16.2203545 L11.1878377,16.2203545 L11.9583056,15.3983546 L12.684097,16.2203545 L15.6361669,16.2229826 L15.6361669,14.979242 L15.9263921,14.979242 C16.3180818,14.9852979 16.7800426,14.9695297 17.1876147,14.7933379 L17.1876147,16.2202403 L19.6225354,16.2202403 L19.6225354,14.842242 L19.7399966,14.842242 C19.8899082,14.842242 19.904648,14.8484121 19.904648,14.9982095 L19.904648,16.220126 L27.301505,16.220126 C27.7711214,16.220126 28.2619904,16.0999225 28.5338194,15.8817966 L28.5338194,16.220126 L30.8800728,16.220126 C31.3683138,16.220126 31.8451286,16.1516831 32.2079102,15.9764054 L32.2079102,14.991468 L32.2079102,14.991468 L32.2079102,14.991468 L32.2079102,14.991468 L32.2079102,14.991468 Z M28.5959778,13.4777266 C28.772284,13.6602029 28.8667786,13.8905548 28.8667786,14.2805306 C28.8667786,15.0956749 28.3575134,15.4761669 27.4443324,15.4761669 L25.6807002,15.4761669 L25.6807002,14.6636507 L27.4372482,14.6636507 C27.6089838,14.6636507 27.730787,14.6409126 27.8071138,14.5698417 C27.8693866,14.5112253 27.914063,14.4261002 27.914063,14.3226932 C27.914063,14.2123163 27.8657302,14.1246774 27.8035718,14.0721169 C27.734329,14.0143004 27.6388062,13.9880202 27.4811248,13.9880202 C26.63433,13.9591119 25.5738654,14.0143004 25.5738654,12.8152363 C25.5738654,12.2656366 25.9191648,11.6871287 26.8684526,11.6871287 L28.683731,11.6871287 L28.683731,12.4935891 L27.022706,12.4935891 C26.8580546,12.4935891 26.7509914,12.4997592 26.6599246,12.5620319 C26.5607452,12.6233906 26.523953,12.7144573 26.523953,12.8346608 C26.523953,12.9776024 26.608164,13.0748392 26.722083,13.1168876 C26.817606,13.1501378 26.9202132,13.1598501 27.0744666,13.1598501 L27.5619078,13.1729902 C28.0534624,13.1849877 28.3908778,13.2699985 28.5959778,13.4777266 C28.5959778,13.4777266 28.3908778,13.2699985 28.5959778,13.4777266 L28.5959778,13.4777266 L28.5959778,13.4777266 L28.5959778,13.4777266 Z M20.4253394,13.2437183 C20.3042218,13.315589 20.1544244,13.3217592 19.9782326,13.3217592 L18.8782335,13.3217592 L18.8782335,12.4707367 L19.9932009,12.4707367 C20.1544244,12.4707367 20.3157622,12.4741645 20.4253394,12.5391796 C20.5426864,12.6005382 20.6128432,12.7178851 20.6128432,12.8800227 C20.6128432,13.0421603 20.5426864,13.1727617 20.4253394,13.2437183 C20.4253394,13.2437183 20.5426864,13.1727617 20.4253394,13.2437183 L20.4253394,13.2437183 L20.4253394,13.2437183 L20.4253394,13.2437183 Z M20.9721968,13.7152771 C21.1737546,13.7896616 21.3385204,13.9230052 21.4157614,14.0333822 C21.5436204,14.2183721 21.5621308,14.3910218 21.5657872,14.7250093 L21.5657872,15.4761669 L20.6567196,15.4761669 L20.6567196,15.0020944 C20.6567196,14.7741419 20.678658,14.4366123 20.5103502,14.2604205 C20.378035,14.1246774 20.1763628,14.092227 19.8460316,14.092227 L18.8783478,14.092227 L18.8783478,15.4761669 L17.9684804,15.4761669 L17.9684804,11.6870145 L20.0590158,11.6870145 C20.5174344,11.6870145 20.8513076,11.7072388 21.1485028,11.8658343 C21.4342718,12.038484 21.6140058,12.2750061 21.6140058,12.7072588 C21.6138914,13.3120469 21.210547,13.6206682 20.9721968,13.7152771 C20.9721968,13.7152771 21.210547,13.6206682 20.9721968,13.7152771 L20.9721968,13.7152771 L20.9721968,13.7152771 L20.9721968,13.7152771 Z M22.1160724,11.6870145 L25.1381848,11.6870145 L25.1381848,12.4706224 L23.0178272,12.4706224 L23.0178272,13.1595073 L25.0864242,13.1595073 L25.0864242,13.9326032 L23.0178272,13.9326032 L23.0178272,14.6865031 L25.1381848,14.6899309 L25.1381848,15.4761669 L22.1160724,15.4761669 L22.1160724,11.6870145 L22.1160724,11.6870145 L22.1160724,11.6870145 L22.1160724,11.6870145 L22.1160724,11.6870145 Z M16.0068325,13.4356783 L14.8366766,13.4356783 L14.8366766,12.4707367 L16.0173446,12.4707367 C16.3442478,12.4707367 16.5711719,12.603966 16.5711719,12.9353255 C16.5711719,13.2630286 16.3547599,13.4356783 16.0068325,13.4356783 L16.0068325,13.4356783 L16.0068325,13.4356783 L16.0068325,13.4356783 L16.0068325,13.4356783 Z M13.9348076,15.1315531 L12.5445833,13.5881036 L13.9348076,12.0936725 L13.9348076,15.1315531 L13.9348076,15.1315531 L13.9348076,15.1315531 L13.9348076,15.1315531 L13.9348076,15.1315531 Z M10.344585,14.6865031 L8.11830656,14.6865031 L8.11830656,13.9326032 L10.1062347,13.9326032 L10.1062347,13.1595073 L8.11830656,13.1595073 L8.11830656,12.4706224 L10.3884616,12.4706224 L11.3788836,13.5748492 L10.344585,14.6865031 L10.344585,14.6865031 L10.344585,14.6865031 L10.344585,14.6865031 L10.344585,14.6865031 Z M17.543312,12.9353255 C17.543312,13.9879059 16.7579901,14.205232 15.966498,14.205232 L14.8366766,14.205232 L14.8366766,15.4761669 L13.0767008,15.4761669 L11.9617334,14.2218 L10.8030037,15.4761669 L7.21632328,15.4761669 L7.21632328,11.6870145 L10.8581922,11.6870145 L11.9722455,12.9290411 L13.1240053,11.6870145 L16.0173446,11.6870145 C16.7359375,11.6870145 17.543312,11.8859444 17.543312,12.9353255 C17.543312,12.9353255 17.543312,11.8859444 17.543312,12.9353255 L17.543312,12.9353255 L17.543312,12.9353255 L17.543312,12.9353255 Z" id="Shape" fill="#FFFFFF"></path>
                                </g>
                            </g>
                        </g>
                    </g>
                </g>
            </g>
        </g>
    </g>
</svg>