<?xml version="1.0" encoding="UTF-8"?>
<svg width="119px" height="16px" viewBox="0 0 119 16" version="1.1" xmlns="http://www.w3.org/2000/svg" xmlns:xlink="http://www.w3.org/1999/xlink">
    <!-- Generator: Sketch 40.3 (33839) - http://www.bohemiancoding.com/sketch -->
    <title>banorte</title>
    <desc>Created with Sketch.</desc>
    <defs></defs>
    <g id="Symbols" stroke="none" stroke-width="1" fill="none" fill-rule="evenodd">
        <g id="footer" transform="translate(-1147.000000, -182.000000)" fill="#980D00">
            <g id="content">
                <g transform="translate(335.000000, 17.000000)">
                    <g id="cols">
                        <g id="payment" transform="translate(600.000000, 132.000000)">
                            <g id="logos" transform="translate(0.000000, 29.000000)">
                                <g id="banorte" transform="translate(212.000000, 4.000000)">
                                    <path d="M106.141474,4.21052632 L106.141474,6.46315789 L101.929263,6.46315789 L101.929263,15.1604211 L99.3684211,15.1604211 L99.3684211,6.52042105 L95.1578947,6.52042105 L95.1578947,4.21052632 L106.141474,4.21052632" id="Fill-27"></path>
                                    <polyline id="Fill-28" points="118.944842 4.21052632 118.944842 6.42357895 110.181895 6.42357895 110.181895 8.73431579 117.124211 8.73431579 117.124211 10.6391579 110.181895 10.6391579 110.181895 12.8336842 118.944842 12.8336842 118.953263 15.1789474 107.789474 15.1789474 107.789474 4.21052632 118.944842 4.21052632"></polyline>
                                    <path d="M56.2282105,8.31073684 L56.2282105,15.1604211 L53.8947368,15.1604211 L53.8947368,4.21052632 L56.1145263,4.21052632 L64.3082105,11.3136842 L64.3082105,4.21052632 L66.4134737,4.21052632 L66.4092632,15.1604211 L64.2955789,15.1604211 C64.2955789,15.1090526 56.2282105,8.31073684 56.2282105,8.31073684" id="Fill-29"></path>
                                    <path d="M39.3953684,12.0513684 L39.3953684,11.7103158 C39.3953684,10.8218947 38.7284211,9.78442105 38.7284211,9.77263158 C38.7284211,9.65136842 39.4122105,9.08547368 39.4122105,7.98315789 L39.4122105,7.34821053 C39.4122105,5.2 37.3212632,4.21052632 36.6492632,4.21052632 L26.9473684,4.21052632 L26.9490526,15.2016842 L37.0214737,15.2016842 C37.3802105,15.1789474 37.4593684,15.0736842 37.9890526,14.7974737 C38.3974737,14.5835789 39.3953684,13.5949474 39.3953684,12.5322105 L39.3953684,12.0513684 L39.3953684,12.0513684 Z M36.8993684,12.2282105 C36.8858947,12.6054737 36.7258947,13.0290526 36.3444211,13.0450526 C35.8703158,13.0652632 29.3709474,13.0357895 29.1595789,13.0357895 L29.1595789,10.8143158 C29.1595789,10.8143158 36.0682105,10.8 36.4235789,10.8193684 C36.7216842,10.8362105 36.8926316,11.1562105 36.8993684,11.5924211 L36.9061053,12.0513684 L36.8993684,12.2282105 L36.8993684,12.2282105 Z M36.9187368,7.65978947 L36.9077895,7.98484211 C36.9077895,8.36378947 36.7326316,8.78652632 36.3528421,8.80252632 C35.8778947,8.82273684 29.3785263,8.79410526 29.168,8.79410526 L29.168,6.57178947 C29.168,6.57178947 36.0757895,6.55663158 36.4311579,6.57684211 C36.7301053,6.59452632 36.9077895,6.91284211 36.9077895,7.34989474 L36.9077895,7.65978947 L36.9187368,7.65978947 L36.9187368,7.65978947 Z" id="Fill-30"></path>
                                    <path d="M48.3014737,10.4084211 L44.7166316,10.4084211 L46.5305263,7.09810526 L48.3014737,10.4084211 L48.3014737,10.4084211 Z M47.3271579,4.21052632 L45.5629474,4.21052632 L39.5789474,15.1604211 L41.9494737,15.1604211 L43.4568421,12.5844211 L49.3187368,12.5844211 L50.8218947,15.1604211 L53.1730526,15.1604211 L47.3271579,4.21052632 L47.3271579,4.21052632 Z" id="Fill-31"></path>
                                    <path d="M79.2084211,9.6 C79.2058947,11.6033684 77.312,12.6029474 76.5877895,12.6029474 L72.6046316,12.6029474 C72.0328421,12.6029474 69.9301053,12.0656842 69.9301053,9.48378947 C69.9301053,7.48042105 72.0522105,6.48168421 72.6618947,6.48168421 L76.5313684,6.48168421 C77.4526316,6.48168421 79.2058947,7.70021053 79.2058947,9.6 L79.2084211,9.6 L79.2084211,9.6 Z M81.6581053,9.568 L81.6522105,9.31031579 C81.5991579,6.72505263 79.0922105,4.21052632 77.2109474,4.21052632 L72.1524211,4.21052632 C69.2075789,4.21052632 67.3684211,7.46526316 67.3684211,9.07957895 L67.3684211,10.6391579 C67.5098947,13.8155789 70.4193684,15.0913684 71.4096842,15.2016842 C72.1128421,15.2791579 77.3844211,15.2016842 77.3844211,15.2016842 C77.8635789,15.1789474 81.1435789,14.4572632 81.6522105,10.4665263 L81.6581053,9.568 L81.6581053,9.568 Z" id="Fill-32"></path>
                                    <path d="M92.5945263,7.54105263 C92.5945263,8.08926316 92.3772632,8.58357895 91.904,8.66357895 C91.6648421,8.66357895 84.8656842,8.66947368 84.8025263,8.65684211 L84.8101053,6.49852632 L91.696,6.49852632 C92.2795789,6.49852632 92.5945263,7.01473684 92.5945263,7.54105263 L92.5945263,7.54105263 Z M94.6475789,7.09810526 C94.5625263,5.33642105 92.8631579,4.21052632 91.0627368,4.21052632 L82.5263158,4.21052632 L82.5263158,15.1604211 L84.8606316,15.1604211 L84.8606316,10.6206316 L88.3882105,10.6206316 C88.5768421,10.6206316 91.8433684,15.1604211 91.8433684,15.1604211 L94.6501053,15.1604211 L91.2901053,10.736 C91.4686316,10.7494737 92.16,10.7090526 92.16,10.7090526 C93.4981053,10.6795789 94.6475789,10.0892632 94.6475789,8.13810526 C94.6475789,8.02947368 94.6543158,7.24294737 94.6475789,7.09810526 L94.6475789,7.09810526 Z" id="Fill-33"></path>
                                    <path d="M10.9726316,7.24968421 C6.58021053,6.78652632 3.36842105,5.37347368 3.36842105,3.70357895 C3.36842105,1.65810526 8.16842105,0 14.0892632,0 C20.0101053,0 24.8101053,1.65810526 24.8101053,3.70357895 C24.8101053,5.74989474 20.0101053,7.40884211 14.0892632,7.40884211 C13.7675789,7.40884211 13.4517895,7.39957895 13.1368421,7.38947368 L13.1368421,1.23621053 L10.9726316,7.24968421" id="Fill-34"></path>
                                    <path d="M10.1322105,8.42105263 L7.61684211,15.6581053 C3.27578947,15.1848421 0,13.7802105 0,12.1246316 C0,10.1338947 4.43705263,8.50863158 10.1322105,8.42105263" id="Fill-35"></path>
                                    <path d="M12.6315789,8.42105263 C17.6690526,8.72421053 21.4981053,10.2425263 21.4981053,12.0707368 C21.4981053,13.8972632 17.6690526,15.4054737 12.6315789,15.7086316 L12.6315789,8.42105263" id="Fill-36"></path>
                                </g>
                            </g>
                        </g>
                    </g>
                </g>
            </g>
        </g>
    </g>
</svg>