<?xml version="1.0" encoding="UTF-8"?>
<svg width="20px" height="20px" viewBox="0 0 20 20" version="1.1" xmlns="http://www.w3.org/2000/svg" xmlns:xlink="http://www.w3.org/1999/xlink">
    <!-- Generator: Sketch 40.3 (33839) - http://www.bohemiancoding.com/sketch -->
    <title>Shape</title>
    <desc>Created with Sketch.</desc>
    <defs></defs>
    <g id="Symbols" stroke="none" stroke-width="1" fill="none" fill-rule="evenodd">
        <g id="footer" transform="translate(-1223.000000, -279.000000)" fill="#3A589B">
            <g id="content">
                <g transform="translate(335.000000, 17.000000)">
                    <g id="bottom" transform="translate(0.000000, 250.000000)">
                        <g id="social" transform="translate(888.000000, 12.000000)">
                            <path d="M8.58833333,15.44 L10.8363333,15.44 L10.8363333,9.99933333 L12.336,9.99933333 L12.5346667,8.12466667 L10.8363333,8.12466667 L10.8386667,7.186 C10.8386667,6.69733333 10.8853333,6.435 11.5866667,6.435 L12.524,6.435 L12.524,4.56 L11.024,4.56 C9.22233333,4.56 8.58833333,5.46966667 8.58833333,6.999 L8.58833333,8.12466667 L7.46533333,8.12466667 L7.46533333,9.99966667 L8.58833333,9.99966667 L8.58833333,15.44 L8.58833333,15.44 Z M10,20 C4.47733333,20 0,15.5226667 0,10 C0,4.477 4.47733333,0 10,0 C15.5226667,0 20,4.477 20,10 C20,15.5226667 15.5226667,20 10,20 L10,20 Z" id="Shape"></path>
                        </g>
                    </g>
                </g>
            </g>
        </g>
    </g>
</svg>