<?xml version="1.0" encoding="UTF-8"?>
<svg width="20px" height="20px" viewBox="0 0 20 20" version="1.1" xmlns="http://www.w3.org/2000/svg" xmlns:xlink="http://www.w3.org/1999/xlink">
    <!-- Generator: Sketch 40.3 (33839) - http://www.bohemiancoding.com/sketch -->
    <title>instagram</title>
    <desc>Created with Sketch.</desc>
    <defs>
        <linearGradient x1="21.3192187%" y1="90.9614844%" x2="78.6816406%" y2="9.039375%" id="linearGradient-1">
            <stop stop-color="#FFB900" offset="0%"></stop>
            <stop stop-color="#9100EB" offset="100%"></stop>
        </linearGradient>
    </defs>
    <g id="Symbols" stroke="none" stroke-width="1" fill="none" fill-rule="evenodd">
        <g id="footer" transform="translate(-1285.000000, -279.000000)">
            <g id="content">
                <g transform="translate(335.000000, 17.000000)">
                    <g id="bottom" transform="translate(0.000000, 250.000000)">
                        <g id="social" transform="translate(888.000000, 12.000000)">
                            <g id="instagram" transform="translate(62.000000, 0.000000)">
                                <circle id="Oval" fill="url(#linearGradient-1)" cx="10" cy="10" r="10"></circle>
                                <g id="Group" transform="translate(3.750000, 3.750000)" fill="#FFFFFF">
                                    <path d="M9.11453125,12.5 L3.38546875,12.5 C1.51875,12.5 0,10.9814063 0,9.11453125 L0,3.38546875 C0,1.51859375 1.51875,0 3.38546875,0 L9.11453125,0 C10.9814063,0 12.5,1.51859375 12.5,3.38546875 L12.5,9.1146875 C12.5,10.9814063 10.9814063,12.5 9.11453125,12.5 L9.11453125,12.5 Z M3.38546875,1.04171875 C2.093125,1.04171875 1.04171875,2.093125 1.04171875,3.38546875 L1.04171875,9.1146875 C1.04171875,10.4070312 2.093125,11.4584375 3.38546875,11.4584375 L9.11453125,11.4584375 C10.406875,11.4584375 11.4582812,10.4070312 11.4582812,9.1146875 L11.4582812,3.38546875 C11.4582812,2.093125 10.406875,1.04171875 9.11453125,1.04171875 L3.38546875,1.04171875 L3.38546875,1.04171875 Z" id="Shape"></path>
                                    <path d="M6.25,9.375 C4.526875,9.375 3.125,7.97296875 3.125,6.25 C3.125,4.52671875 4.526875,3.125 6.25,3.125 C7.973125,3.125 9.375,4.52671875 9.375,6.25 C9.375,7.97296875 7.973125,9.375 6.25,9.375 L6.25,9.375 Z M6.25,4.16671875 C5.10125,4.16671875 4.16671875,5.10125 4.16671875,6.25 C4.16671875,7.39890625 5.10125,8.33328125 6.25,8.33328125 C7.39875,8.33328125 8.33328125,7.39890625 8.33328125,6.25 C8.33328125,5.10125 7.39890625,4.16671875 6.25,4.16671875 L6.25,4.16671875 Z" id="Shape"></path>
                                    <ellipse id="Oval" cx="9.5703125" cy="2.9296875" rx="0.71609375" ry="0.71609375"></ellipse>
                                </g>
                            </g>
                        </g>
                    </g>
                </g>
            </g>
        </g>
    </g>
</svg>