<?xml version="1.0" encoding="UTF-8"?>
<svg width="34px" height="20px" viewBox="0 0 34 20" version="1.1" xmlns="http://www.w3.org/2000/svg" xmlns:xlink="http://www.w3.org/1999/xlink">
    <!-- Generator: Sketch 40.3 (33839) - http://www.bohemiancoding.com/sketch -->
    <title>mastercard</title>
    <desc>Created with Sketch.</desc>
    <defs></defs>
    <g id="Symbols" stroke="none" stroke-width="1" fill="none" fill-rule="evenodd">
        <g id="footer" transform="translate(-997.000000, -178.000000)">
            <g id="content">
                <g transform="translate(335.000000, 17.000000)">
                    <g id="cols">
                        <g id="payment" transform="translate(600.000000, 132.000000)">
                            <g id="logos" transform="translate(0.000000, 29.000000)">
                                <g id="mastercard" transform="translate(62.000000, 0.000000)">
                                    <g id="Group">
                                        <g>
                                            <ellipse id="Oval" fill="#ED1C2E" cx="10.1808333" cy="10.0004167" rx="9.9725" ry="9.9725"></ellipse>
                                            <path d="M23.5691667,0.0275 C20.99125,0.0275 18.6441667,1.005 16.8741667,2.60916667 C16.5145833,2.93583333 16.1779167,3.28916667 15.8679167,3.66458333 L17.8825,3.66458333 C18.1579167,3.99958333 18.4116667,4.35166667 18.6429167,4.72083333 L15.1075,4.72083333 C14.8958333,5.06 14.7033333,5.4125 14.5329167,5.77708333 L19.2170833,5.77708333 C19.3770833,6.11916667 19.5183333,6.47125 19.6395833,6.8325 L14.1104167,6.8325 C13.995,7.17666667 13.8983333,7.52875 13.8208333,7.88833333 L19.92875,7.88833333 C20.0758333,8.56916667 20.1529167,9.27541667 20.1529167,10.0004167 C20.1529167,11.1075 19.9720833,12.1733333 19.6395833,13.1683333 L14.1104167,13.1683333 C14.2316667,13.5304167 14.3725,13.8829167 14.5325,14.2245833 L19.2170833,14.2245833 C19.04625,14.5891667 18.8545833,14.9416667 18.6420833,15.2804167 L15.1075,15.2804167 C15.3379167,15.64875 15.5920833,16.0008333 15.8679167,16.3358333 L17.8820833,16.3358333 C17.5725,16.71125 17.2358333,17.065 16.8745833,17.3916667 C18.6445833,18.9954167 20.9920833,19.9720833 23.5691667,19.9720833 C29.0766667,19.9725 33.5416667,15.5075 33.5416667,10 C33.5416667,4.49333333 29.0766667,0.0275 23.5691667,0.0275 L23.5691667,0.0275 Z" id="Shape" fill="#FCB131"></path>
                                        </g>
                                        <path d="M32.2129167,15.5591667 C32.2129167,15.38125 32.3575,15.2379167 32.5345833,15.2379167 C32.7129167,15.2379167 32.85625,15.3820833 32.85625,15.5591667 C32.85625,15.7375 32.7120833,15.88125 32.5345833,15.88125 C32.3570833,15.88125 32.2129167,15.7375 32.2129167,15.5591667 L32.2129167,15.5591667 Z M32.5345833,15.8041667 C32.6691667,15.8041667 32.7791667,15.6941667 32.7791667,15.5591667 C32.7791667,15.4233333 32.6691667,15.3145833 32.5345833,15.3145833 C32.3991667,15.3145833 32.2895833,15.4233333 32.2895833,15.5591667 C32.2895833,15.6941667 32.3991667,15.8041667 32.5345833,15.8041667 L32.5345833,15.8041667 Z M32.49125,15.7008333 L32.425,15.7008333 L32.425,15.4179167 L32.5445833,15.4179167 C32.57,15.4179167 32.595,15.4179167 32.6175,15.43125 C32.64,15.4470833 32.6529167,15.4745833 32.6529167,15.5025 C32.6529167,15.5345833 32.6345833,15.56375 32.60375,15.5758333 L32.65625,15.7008333 L32.5829167,15.7008333 L32.5395833,15.58875 L32.4916667,15.58875 L32.4916667,15.7008333 L32.49125,15.7008333 L32.49125,15.7008333 Z M32.49125,15.54 L32.5279167,15.54 C32.5416667,15.54 32.5554167,15.5408333 32.5683333,15.5345833 C32.5791667,15.5270833 32.5854167,15.5141667 32.5854167,15.5020833 C32.5854167,15.4916667 32.5775,15.4783333 32.5691667,15.4733333 C32.5575,15.46625 32.5391667,15.4675 32.52625,15.4675 L32.49125,15.4675 L32.49125,15.54 L32.49125,15.54 Z" id="Shape" fill="#FCB131"></path>
                                    </g>
                                    <g id="Group" transform="translate(0.833333, 7.083333)">
                                        <g transform="translate(0.000000, 0.416667)" id="Shape" fill="#003473">
                                            <path d="M7.01875,3.59208333 C6.90541667,3.57916667 6.855,3.575 6.77708333,3.575 C6.16333333,3.575 5.85333333,3.78583333 5.85333333,4.20166667 C5.85333333,4.4575 6.00458333,4.62041667 6.24125,4.62041667 C6.68208333,4.62041667 7,4.20083333 7.01875,3.59208333 L7.01875,3.59208333 Z M7.80625,5.425 L6.90916667,5.425 L6.92958333,4.99958333 C6.65583333,5.33666667 6.29083333,5.49666667 5.795,5.49666667 C5.20833333,5.49666667 4.80583333,5.03791667 4.80583333,4.37333333 C4.80583333,3.37166667 5.50541667,2.78666667 6.70666667,2.78666667 C6.82958333,2.78666667 6.98666667,2.79791667 7.14791667,2.81833333 C7.18166667,2.6825 7.19041667,2.62458333 7.19041667,2.55125 C7.19041667,2.27916667 7.00208333,2.17708333 6.49625,2.17708333 C5.96625,2.17166667 5.52958333,2.30375 5.35,2.3625 C5.36125,2.29416667 5.5,1.4375 5.5,1.4375 C6.03916667,1.27875 6.395,1.21958333 6.79541667,1.21958333 C7.725,1.21958333 8.21791667,1.63666667 8.21666667,2.42583333 C8.21833333,2.6375 8.18333333,2.89791667 8.12916667,3.24166667 C8.03541667,3.83625 7.83333333,5.11375 7.80625,5.425 L7.80625,5.425 Z"></path>
                                            <polygon points="4.35291667 5.425 3.27 5.425 3.89041667 1.53666667 2.50541667 5.425 1.76791667 5.425 1.67666667 1.55833333 1.02458333 5.425 0.01125 5.425 0.857916667 0.366666667 2.41458333 0.366666667 2.50875 3.19791667 3.45875 0.366666667 5.19041667 0.366666667"></polygon>
                                            <path d="M24.0729167,3.59208333 C23.96,3.57916667 23.9095833,3.575 23.8325,3.575 C23.2183333,3.575 22.9083333,3.78583333 22.9083333,4.20166667 C22.9083333,4.4575 23.05875,4.62041667 23.29625,4.62041667 C23.7379167,4.62041667 24.055,4.20083333 24.0729167,3.59208333 L24.0729167,3.59208333 Z M24.8616667,5.425 L23.965,5.425 L23.9854167,4.99958333 C23.7120833,5.33666667 23.3466667,5.49666667 22.8508333,5.49666667 C22.2633333,5.49666667 21.8616667,5.03791667 21.8616667,4.37333333 C21.8616667,3.37166667 22.5620833,2.78666667 23.7625,2.78666667 C23.8858333,2.78666667 24.0425,2.79791667 24.2041667,2.81833333 C24.2375,2.6825 24.24625,2.62458333 24.24625,2.55125 C24.24625,2.27916667 24.0583333,2.17708333 23.5529167,2.17708333 C23.0233333,2.17166667 22.58625,2.30375 22.40625,2.3625 C22.4175,2.29416667 22.5566667,1.4375 22.5566667,1.4375 C23.09625,1.27875 23.4516667,1.21958333 23.85125,1.21958333 C24.78125,1.21958333 25.27375,1.63666667 25.2729167,2.42583333 C25.2745833,2.6375 25.24,2.89791667 25.185,3.24166667 C25.0908333,3.83625 24.8883333,5.11375 24.8616667,5.425 L24.8616667,5.425 Z"></path>
                                            <path d="M12.6175,5.3625 C12.32125,5.45583333 12.09,5.49541667 11.8395833,5.49541667 C11.28625,5.49541667 10.9841667,5.1775 10.9841667,4.59208333 C10.97625,4.40958333 11.06375,3.93208333 11.1325,3.495 C11.195,3.11083333 11.6020833,0.687916667 11.6020833,0.687916667 L12.6783333,0.687916667 L12.5529167,1.31041667 L13.2029167,1.31041667 L13.05625,2.29916667 L12.4041667,2.29916667 C12.2791667,3.08125 12.1008333,4.05625 12.0991667,4.18541667 C12.0991667,4.3975 12.2120833,4.49 12.47,4.49 C12.5933333,4.49 12.68875,4.4775 12.7616667,4.45083333 L12.6175,5.3625 L12.6175,5.3625 Z"></path>
                                            <path d="M15.9170833,5.32916667 C15.5470833,5.44208333 15.1908333,5.49708333 14.8129167,5.49541667 C13.6079167,5.49458333 12.98,4.865 12.98,3.66083333 C12.98,2.25458333 13.77875,1.21958333 14.86375,1.21958333 C15.7508333,1.21958333 16.3175,1.79916667 16.3175,2.70791667 C16.3175,3.01041667 16.2783333,3.30416667 16.185,3.71958333 L14.0416667,3.71958333 C13.9691667,4.31666667 14.3508333,4.565 14.9775,4.565 C15.3620833,4.565 15.71,4.48583333 16.09625,4.30666667 L15.9170833,5.32916667 L15.9170833,5.32916667 Z M15.3120833,2.89083333 C15.3183333,2.80458333 15.4258333,2.15625 14.81125,2.15625 C14.46875,2.15625 14.2233333,2.4175 14.1241667,2.89083333 L15.3120833,2.89083333 L15.3120833,2.89083333 Z"></path>
                                            <path d="M8.45541667,2.61208333 C8.45541667,3.1325 8.7075,3.49083333 9.28,3.76041667 C9.71833333,3.96625 9.78625,4.02791667 9.78625,4.21458333 C9.78625,4.47083333 9.59291667,4.58708333 9.16458333,4.58708333 C8.84125,4.58708333 8.54083333,4.53708333 8.19416667,4.42416667 C8.19416667,4.42416667 8.05208333,5.33125 8.04541667,5.37416667 C8.29125,5.42791667 8.51083333,5.4775 9.17208333,5.49625 C10.3145833,5.49625 10.8420833,5.06083333 10.8420833,4.12083333 C10.8420833,3.55625 10.6216667,3.22458333 10.07875,2.97416667 C9.625,2.76666667 9.5725,2.71958333 9.5725,2.5275 C9.5725,2.30541667 9.75291667,2.19166667 10.1025,2.19166667 C10.315,2.19166667 10.6054167,2.21416667 10.8804167,2.25291667 L11.0345833,1.29875 C10.7541667,1.25416667 10.3291667,1.21875 10.0816667,1.21875 C8.87083333,1.21958333 8.45166667,1.85208333 8.45541667,2.61208333 L8.45541667,2.61208333 Z"></path>
                                            <path d="M21.1825,1.32791667 C21.48375,1.32791667 21.7641667,1.40625 22.15,1.60083333 L22.3270833,0.502916667 C22.1679167,0.440416667 21.61,0.075 21.1379167,0.075 C20.41375,0.075 19.8,0.434583333 19.3695833,1.02791667 C18.74125,0.819583333 18.4825,1.24041667 18.1658333,1.65958333 L17.8845833,1.725 C17.90625,1.58708333 17.9258333,1.45 17.9191667,1.31125 L16.9241667,1.31125 C16.78875,2.58458333 16.5483333,3.87416667 16.36,5.14791667 L16.3104167,5.42458333 L17.3945833,5.42458333 C17.5754167,4.25041667 17.67375,3.49833333 17.73375,2.98833333 L18.1416667,2.76208333 C18.2025,2.535 18.3933333,2.45875 18.7754167,2.46833333 C18.7258333,2.73666667 18.6983333,3.01875 18.6983333,3.31125 C18.6983333,4.65666667 19.4254167,5.495 20.5904167,5.495 C20.89125,5.495 21.1483333,5.455 21.5479167,5.3475 L21.7375,4.19375 C21.37875,4.37083333 21.085,4.45333333 20.8179167,4.45333333 C20.18875,4.45333333 19.8079167,3.98916667 19.8079167,3.22125 C19.8079167,2.10833333 20.3733333,1.32791667 21.1825,1.32791667 L21.1825,1.32791667 Z"></path>
                                            <path d="M30.3483333,0.366666667 L30.1079167,1.82791667 C29.8125,1.43875 29.4941667,1.15666667 29.075,1.15666667 C28.5283333,1.15666667 28.0316667,1.57083333 27.70625,2.18083333 C27.2520833,2.08666667 26.7841667,1.92666667 26.7841667,1.92666667 L26.7833333,1.93083333 C26.82,1.59 26.8354167,1.3825 26.83125,1.31166667 L25.83625,1.31166667 C25.7016667,2.585 25.4608333,3.87458333 25.2720833,5.14833333 L25.2229167,5.425 L26.30625,5.425 C26.4533333,4.47625 26.5641667,3.68666667 26.64625,3.06166667 C27.0166667,2.72666667 27.2020833,2.43625 27.575,2.45458333 C27.41,2.85541667 27.3125,3.31625 27.3125,3.78916667 C27.3125,4.81791667 27.8325,5.49666667 28.62,5.49666667 C29.0170833,5.49666667 29.3216667,5.35916667 29.6183333,5.0425 L29.5670833,5.425 L30.5916667,5.425 L31.41625,0.366666667 L30.3483333,0.366666667 L30.3483333,0.366666667 Z M28.9945833,4.47458333 C28.6258333,4.47458333 28.4395833,4.20166667 28.4395833,3.66375 C28.4395833,2.85583333 28.7883333,2.28208333 29.28,2.28208333 C29.6520833,2.28208333 29.85375,2.56541667 29.85375,3.08791667 C29.8525,3.90291667 29.4983333,4.47458333 28.9945833,4.47458333 L28.9945833,4.47458333 Z"></path>
                                        </g>
                                        <g id="Shape" fill="#FFFFFF">
                                            <polygon points="4.66416667 5.54166667 3.58166667 5.54166667 4.20208333 1.65333333 2.81708333 5.54166667 2.07958333 5.54166667 1.98833333 1.67583333 1.33666667 5.54166667 0.322916667 5.54166667 1.16958333 0.483333333 2.72625 0.483333333 2.76958333 3.61458333 3.82 0.483333333 5.50166667 0.483333333"></polygon>
                                            <path d="M7.33041667,3.70833333 C7.21708333,3.69583333 7.16666667,3.69208333 7.08875,3.69208333 C6.475,3.69208333 6.16458333,3.9025 6.16458333,4.31791667 C6.16458333,4.57333333 6.31625,4.7375 6.5525,4.7375 C6.99375,4.7375 7.31166667,4.31708333 7.33041667,3.70833333 L7.33041667,3.70833333 Z M8.1175,5.54166667 L7.22041667,5.54166667 L7.24083333,5.11583333 C6.9675,5.45291667 6.60208333,5.61291667 6.10625,5.61291667 C5.51958333,5.61291667 5.11708333,5.15458333 5.11708333,4.48916667 C5.11708333,3.48791667 5.81666667,2.90333333 7.01791667,2.90333333 C7.14041667,2.90333333 7.29791667,2.91458333 7.45916667,2.93541667 C7.4925,2.79958333 7.50125,2.74166667 7.50125,2.6675 C7.50125,2.39541667 7.31291667,2.29416667 6.80708333,2.29416667 C6.27708333,2.28791667 5.84083333,2.42 5.66083333,2.47875 C5.6725,2.41041667 5.81125,1.55375 5.81125,1.55375 C6.35041667,1.39583333 6.70625,1.33583333 7.10708333,1.33583333 C8.03666667,1.33583333 8.52916667,1.75375 8.52833333,2.54208333 C8.53,2.75375 8.495,3.015 8.44083333,3.35791667 C8.34708333,3.9525 8.14541667,5.23125 8.1175,5.54166667 L8.1175,5.54166667 Z"></path>
                                            <path d="M22.63875,0.619583333 L22.46125,1.7175 C22.0741667,1.52291667 21.7941667,1.44458333 21.4941667,1.44458333 C20.68625,1.44458333 20.11875,2.22583333 20.11875,3.34 C20.11875,4.1075 20.5,4.57125 21.1295833,4.57125 C21.3966667,4.57125 21.69125,4.48916667 22.0491667,4.31166667 L21.85875,5.46541667 C21.46,5.57375 21.2025,5.61291667 20.9020833,5.61291667 C19.73625,5.61291667 19.0104167,4.77458333 19.0104167,3.42958333 C19.0104167,1.62125 20.0141667,0.357083333 21.44875,0.357083333 C21.92125,0.356666667 22.48,0.5575 22.63875,0.619583333 L22.63875,0.619583333 Z"></path>
                                            <path d="M24.3845833,3.70833333 C24.2716667,3.69583333 24.22125,3.69208333 24.14375,3.69208333 C23.53,3.69208333 23.2191667,3.9025 23.2191667,4.31791667 C23.2191667,4.57333333 23.3708333,4.7375 23.6079167,4.7375 C24.04875,4.7375 24.3666667,4.31708333 24.3845833,3.70833333 L24.3845833,3.70833333 Z M25.1729167,5.54166667 L24.2766667,5.54166667 L24.2970833,5.11583333 C24.02375,5.45291667 23.6583333,5.61291667 23.1620833,5.61291667 C22.575,5.61291667 22.1733333,5.15458333 22.1733333,4.48916667 C22.1733333,3.48791667 22.8729167,2.90333333 24.0741667,2.90333333 C24.1970833,2.90333333 24.3541667,2.91458333 24.5154167,2.93541667 C24.54875,2.79958333 24.5579167,2.74166667 24.5579167,2.6675 C24.5579167,2.39541667 24.37,2.29416667 23.86375,2.29416667 C23.3341667,2.28791667 22.8983333,2.42 22.7179167,2.47875 C22.7291667,2.41041667 22.8679167,1.55375 22.8679167,1.55375 C23.4075,1.39583333 23.7625,1.33583333 24.1633333,1.33583333 C25.0929167,1.33583333 25.5854167,1.75375 25.58375,2.54208333 C25.5866667,2.75375 25.55125,3.015 25.4966667,3.35791667 C25.4025,3.9525 25.2,5.23125 25.1729167,5.54166667 L25.1729167,5.54166667 Z"></path>
                                            <path d="M12.9291667,5.47833333 C12.6329167,5.57208333 12.4020833,5.6125 12.1516667,5.6125 C11.5983333,5.6125 11.2958333,5.29375 11.2958333,4.70875 C11.2879167,4.52625 11.3754167,4.04875 11.4441667,3.61208333 C11.5066667,3.22708333 11.91375,0.804583333 11.91375,0.804583333 L12.99,0.804583333 L12.8641667,1.4275 L13.41625,1.4275 L13.2691667,2.41583333 L12.715,2.41583333 C12.59,3.19875 12.4116667,4.17291667 12.4095833,4.30208333 C12.4095833,4.51458333 12.5229167,4.60625 12.7804167,4.60625 C12.90375,4.60625 12.9991667,4.59416667 13.0720833,4.5675 L12.9291667,5.47833333 L12.9291667,5.47833333 Z"></path>
                                            <path d="M16.22875,5.44583333 C15.8591667,5.55875 15.5020833,5.6125 15.1245833,5.6125 C13.9195833,5.61125 13.2920833,4.98166667 13.2920833,3.7775 C13.2920833,2.37125 14.0908333,1.33583333 15.175,1.33583333 C16.0629167,1.33583333 16.6295833,1.91541667 16.6295833,2.825 C16.6295833,3.12666667 16.59,3.42125 16.4970833,3.83666667 L14.3541667,3.83666667 C14.28125,4.43375 14.6633333,4.6825 15.2891667,4.6825 C15.6741667,4.6825 16.0216667,4.60291667 16.4083333,4.42291667 L16.22875,5.44583333 L16.22875,5.44583333 Z M15.6241667,3.00708333 C15.63,2.92125 15.7379167,2.27291667 15.1229167,2.27291667 C14.7804167,2.27291667 14.535,2.53458333 14.4354167,3.00708333 L15.6241667,3.00708333 L15.6241667,3.00708333 Z"></path>
                                            <path d="M8.76708333,2.72833333 C8.76708333,3.24916667 9.01958333,3.60708333 9.59166667,3.87791667 C10.03,4.08333333 10.0975,4.145 10.0975,4.33125 C10.0975,4.5875 9.90416667,4.70416667 9.47583333,4.70416667 C9.15291667,4.70416667 8.85208333,4.65375 8.50541667,4.54208333 C8.50541667,4.54208333 8.36333333,5.44875 8.35708333,5.49083333 C8.60291667,5.54458333 8.8225,5.59416667 9.48375,5.61291667 C10.62625,5.61291667 11.15375,5.17791667 11.15375,4.23791667 C11.15375,3.67291667 10.9329167,3.34166667 10.3904167,3.09208333 C9.93666667,2.88291667 9.88458333,2.83708333 9.88458333,2.645 C9.88458333,2.4225 10.0645833,2.30791667 10.4141667,2.30791667 C10.62625,2.30791667 10.9170833,2.33166667 11.1920833,2.37041667 L11.34625,1.41625 C11.0658333,1.37208333 10.6408333,1.33583333 10.3933333,1.33583333 C9.1825,1.33583333 8.76333333,1.96833333 8.76708333,2.72833333 L8.76708333,2.72833333 Z"></path>
                                            <path d="M30.9033333,5.54166667 L29.8791667,5.54166667 L29.9295833,5.15875 C29.6325,5.47625 29.32875,5.61291667 28.93125,5.61291667 C28.1441667,5.61291667 27.62375,4.935 27.62375,3.90583333 C27.62375,2.5375 28.4308333,1.38416667 29.3854167,1.38416667 C29.8058333,1.38416667 30.1233333,1.55541667 30.4191667,1.94541667 L30.6591667,0.483333333 L31.7270833,0.483333333 L30.9033333,5.54166667 L30.9033333,5.54166667 Z M29.3058333,4.59166667 C29.8104167,4.59166667 30.1645833,4.02041667 30.1645833,3.205 C30.1645833,2.68291667 29.96375,2.39833333 29.5908333,2.39833333 C29.0995833,2.39833333 28.75125,2.97166667 28.75125,3.78041667 C28.75125,4.31875 28.9379167,4.59166667 29.3058333,4.59166667 L29.3058333,4.59166667 Z"></path>
                                            <path d="M26.1483333,1.42833333 C26.0133333,2.70166667 25.7725,3.99083333 25.58375,5.265 L25.5341667,5.54166667 L26.6170833,5.54166667 C27.0054167,3.02583333 27.0975,2.535 27.7054167,2.59666667 C27.8016667,2.08166667 27.9820833,1.63083333 28.1158333,1.40333333 C27.6625,1.30875 27.4095833,1.56541667 27.0775,2.05208333 C27.10375,1.84166667 27.1520833,1.63708333 27.1425,1.42833333 L26.1483333,1.42833333 L26.1483333,1.42833333 Z"></path>
                                            <path d="M17.23625,1.42833333 C17.1004167,2.70166667 16.8591667,3.99083333 16.67125,5.265 L16.6220833,5.54166667 L17.7058333,5.54166667 C18.0933333,3.02583333 18.18625,2.535 18.7925,2.59666667 C18.8895833,2.08166667 19.0708333,1.63083333 19.2041667,1.40333333 C18.7508333,1.30875 18.4979167,1.56541667 18.1658333,2.05208333 C18.1920833,1.84166667 18.2408333,1.63708333 18.2304167,1.42833333 L17.23625,1.42833333 L17.23625,1.42833333 Z"></path>
                                            <path d="M31.37875,5.21958333 C31.37875,5.04041667 31.5241667,4.89708333 31.7004167,4.89708333 C31.87875,4.89708333 32.0220833,5.04166667 32.0220833,5.21958333 C32.0220833,5.39666667 31.8779167,5.54083333 31.7004167,5.54083333 C31.5233333,5.54166667 31.37875,5.39666667 31.37875,5.21958333 L31.37875,5.21958333 Z M31.7004167,5.46416667 C31.8358333,5.46416667 31.9454167,5.35375 31.9454167,5.21958333 C31.9454167,5.08416667 31.8358333,4.97375 31.7004167,4.97375 C31.5654167,4.97375 31.4558333,5.08416667 31.4558333,5.21958333 C31.4558333,5.355 31.5654167,5.46416667 31.7004167,5.46416667 L31.7004167,5.46416667 Z M31.6570833,5.36 L31.59125,5.36 L31.59125,5.07708333 L31.7116667,5.07708333 C31.7366667,5.07708333 31.76125,5.07791667 31.7833333,5.09166667 C31.8070833,5.10666667 31.8195833,5.13458333 31.8195833,5.1625 C31.8195833,5.19375 31.80125,5.22375 31.7708333,5.23583333 L31.8229167,5.35958333 L31.7495833,5.35958333 L31.70625,5.24791667 L31.6583333,5.24791667 L31.6583333,5.36 L31.6570833,5.36 L31.6570833,5.36 Z M31.6570833,5.2 L31.69375,5.2 C31.7075,5.2 31.7220833,5.20083333 31.7345833,5.19375 C31.745,5.18708333 31.7508333,5.17333333 31.7508333,5.16166667 C31.7508333,5.15125 31.7441667,5.13833333 31.735,5.1325 C31.7241667,5.12583333 31.7054167,5.1275 31.6929167,5.1275 L31.6570833,5.1275 L31.6570833,5.2 L31.6570833,5.2 Z"></path>
                                        </g>
                                    </g>
                                </g>
                            </g>
                        </g>
                    </g>
                </g>
            </g>
        </g>
    </g>
</svg>