<?xml version="1.0" encoding="UTF-8"?>
<svg width="15px" height="16px" viewBox="0 0 15 16" version="1.1" xmlns="http://www.w3.org/2000/svg" xmlns:xlink="http://www.w3.org/1999/xlink">
    <!-- Generator: Sketch 40.1 (33804) - http://www.bohemiancoding.com/sketch -->
    <title>notification</title>
    <desc>Created with Sketch.</desc>
    <defs></defs>
    <g id="Symbols" stroke="none" stroke-width="1" fill="none" fill-rule="evenodd">
        <g id="topbar" transform="translate(-1173.000000, -27.000000)" fill="#95A5A6">
            <g id="notification">
                <path d="M1187.77526,40.42 L1186.14269,37.6988571 L1186.14269,33.8571429 C1186.14269,30.8988571 1183.88326,28.4594286 1180.99983,28.172 L1180.99983,27.5714286 C1180.99983,27.256 1180.74383,27 1180.4284,27 C1180.11297,27 1179.85697,27.256 1179.85697,27.5714286 L1179.85697,28.7142857 C1179.85697,29.0297143 1180.11297,29.2857143 1180.4284,29.2857143 C1182.94897,29.2857143 1184.99983,31.3365714 1184.99983,33.8571429 L1184.99983,37.8571429 C1184.99983,37.9611429 1185.02783,38.0622857 1185.08154,38.1514286 L1186.27583,40.1428571 L1174.5804,40.1428571 L1175.77526,38.1514286 C1175.82897,38.0622857 1175.85697,37.9611429 1175.85697,37.8571429 L1175.85697,33.8571429 C1175.85697,32.0977143 1176.88554,30.4742857 1178.47697,29.7211429 C1178.76211,29.5862857 1178.88383,29.2457143 1178.74897,28.96 C1178.61411,28.6748571 1178.27354,28.5531429 1177.98783,28.688 C1175.99926,29.6291429 1174.71411,31.6577143 1174.71411,33.8571429 L1174.71411,37.6988571 L1173.08154,40.4205714 C1172.97526,40.5971429 1172.97297,40.8165714 1173.07411,40.9965714 C1173.17526,41.1754286 1173.36554,41.2857143 1173.57126,41.2857143 L1178.22383,41.2857143 C1178.47926,42.2691429 1179.36669,43 1180.4284,43 C1181.49069,43 1182.37754,42.2691429 1182.63297,41.2857143 L1187.28554,41.2857143 C1187.49126,41.2857143 1187.68097,41.1754286 1187.78269,40.996 C1187.8844,40.8165714 1187.88154,40.5965714 1187.77526,40.42 L1187.77526,40.42 Z M1180.4284,41.8571429 C1180.00726,41.8571429 1179.64269,41.6257143 1179.4444,41.2857143 L1181.41183,41.2857143 C1181.21411,41.6257143 1180.84954,41.8571429 1180.4284,41.8571429 L1180.4284,41.8571429 Z"></path>
            </g>
        </g>
    </g>
</svg>