<?xml version="1.0" encoding="UTF-8"?>
<svg width="44px" height="20px" viewBox="0 0 44 20" version="1.1" xmlns="http://www.w3.org/2000/svg" xmlns:xlink="http://www.w3.org/1999/xlink">
    <!-- Generator: Sketch 40.3 (33839) - http://www.bohemiancoding.com/sketch -->
    <title>oxxo</title>
    <desc>Created with Sketch.</desc>
    <defs></defs>
    <g id="Symbols" stroke="none" stroke-width="1" fill="none" fill-rule="evenodd">
        <g id="footer" transform="translate(-1090.000000, -178.000000)">
            <g id="content">
                <g transform="translate(335.000000, 17.000000)">
                    <g id="cols">
                        <g id="payment" transform="translate(600.000000, 132.000000)">
                            <g id="logos" transform="translate(0.000000, 29.000000)">
                                <g id="oxxo" transform="translate(155.000000, 0.000000)">
                                    <g id="Group" transform="translate(0.016997, 0.000000)">
                                        <path d="M0.039490085,1.4 C0.039490085,0.658923513 0.64572238,0.0526912181 1.38679887,0.0526912181 L41.9611898,0.0526912181 C42.7023229,0.0526912181 43.3085552,0.658923513 43.3085552,1.4 L43.3085552,18.647932 C43.3085552,19.3891218 42.7023229,19.9952975 41.9611898,19.9952975 L1.38679887,19.9952975 C0.64572238,19.9952975 0.039490085,19.3891218 0.039490085,18.647932 L0.039490085,1.4 L0.039490085,1.4 Z" id="Shape" fill="#F0A929"></path>
                                        <polygon id="Shape" fill="#FFFFFF" points="0.039490085 2.01070822 43.3086119 2.01070822 43.3086119 18.0370538 0.039490085 18.0370538 0.039490085 2.01070822"></polygon>
                                        <path d="M36.7089518,6.1729745 C34.7292918,6.1729745 33.1155241,7.78696884 33.1155241,9.7666289 C33.1155241,11.7455524 34.7292918,13.3597734 36.7089518,13.3597734 C38.6882153,13.3597734 40.3020397,11.7455524 40.3020397,9.7666289 C40.3020397,7.78696884 38.6882153,6.1729745 36.7089518,6.1729745 L36.7089518,6.1729745 Z" id="Shape" fill="#E21C2A"></path>
                                        <path d="M7.09070822,6.1729745 C5.11087819,6.1729745 3.49688385,7.78696884 3.49688385,9.7666289 C3.49688385,11.7455524 5.11087819,13.3597734 7.09070822,13.3597734 C9.06963173,13.3597734 10.6836827,11.7455524 10.6836827,9.7666289 C10.6836827,7.78696884 9.06963173,6.1729745 7.09070822,6.1729745 L7.09070822,6.1729745 Z" id="Shape" fill="#E21C2A"></path>
                                        <path d="M36.4269122,3.01042493 C33.1004533,2.93399433 31.5365439,5.0670255 29.2667989,7.69790368 L27.1256657,10.1792635 L30.516204,14.2382436 C31.323966,15.4853824 29.7822663,16.7231161 28.825779,15.5819263 L25.6910482,11.8425496 L22.6364306,15.3836261 C21.6636827,16.5108215 20.1394901,15.2516147 20.9645326,14.0161473 L24.2805666,10.16 L22.108102,7.56838527 L23.5056091,5.8376204 L25.7150142,8.49167139 L27.6195467,6.27626062 C28.554051,5.19002833 29.5070822,3.7505949 30.7422663,3.01042493 L0.0395467422,3.01042493 L0.0395467422,17.0376204 L7.21796034,17.0376204 C10.5448725,17.0376204 12.0551275,15.0484986 14.2633428,12.3661756 L16.3469688,9.83535411 L12.8631161,5.85620397 C12.0275354,4.62787535 13.5398867,3.35529745 14.5226062,4.47399433 L17.7423229,8.14033994 L20.7153541,4.52951841 C21.6615864,3.37966006 23.2141076,4.60402266 22.4179603,5.85830028 L19.1915581,9.79025496 L21.4233994,12.3311615 L20.0171671,13.9963739 L17.7956941,11.4908782 L15.9430028,13.7490652 C15.0336544,14.8566006 14.1131445,16.2691785 12.8951275,17.0376204 L43.3086686,17.0376204 L43.3086686,3.01042493 L36.4269122,3.01042493 L36.4269122,3.01042493 Z M12.7674221,9.7666289 C12.7674221,12.893711 10.2176204,15.443796 7.09070822,15.443796 C3.96300283,15.443796 1.41320113,12.893711 1.41320113,9.7666289 C1.41320113,6.63903683 3.96300283,4.08917847 7.09070822,4.08917847 C10.2176204,4.08917847 12.7674221,6.63903683 12.7674221,9.7666289 L12.7674221,9.7666289 Z M36.7089518,15.443796 C33.581813,15.443796 31.0314448,12.893711 31.0314448,9.7666289 C31.0314448,6.63903683 33.581813,4.08917847 36.7089518,4.08917847 C39.8362606,4.08917847 42.3860057,6.63903683 42.3860057,9.7666289 C42.3860057,12.893711 39.8362606,15.443796 36.7089518,15.443796 L36.7089518,15.443796 Z" id="Shape" fill="#E21C2A"></path>
                                    </g>
                                </g>
                            </g>
                        </g>
                    </g>
                </g>
            </g>
        </g>
    </g>
</svg>