<?xml version="1.0" encoding="UTF-8"?>
<svg width="16px" height="16px" viewBox="0 0 16 16" version="1.1" xmlns="http://www.w3.org/2000/svg" xmlns:xlink="http://www.w3.org/1999/xlink">
    <!-- Generator: Sketch 40.1 (33804) - http://www.bohemiancoding.com/sketch -->
    <title>search</title>
    <desc>Created with Sketch.</desc>
    <defs></defs>
    <g id="Symbols" stroke="none" stroke-width="1" fill="none" fill-rule="evenodd">
        <g id="topbar" transform="translate(-777.000000, -28.000000)" fill="#FFFFFF">
            <g id="search">
                <g transform="translate(267.000000, 18.000000)">
                    <g id="btn" transform="translate(500.000000, 0.000000)">
                        <path d="M16.2260569,22.4521139 C17.7446074,22.4521139 19.1251079,21.9137187 20.2018982,21.0025884 L25.0336497,25.8343399 C25.1440897,25.94478 25.2821398,26 25.4339948,26 C25.5858499,26 25.7238999,25.94478 25.8343399,25.8343399 C26.05522,25.6134599 26.05522,25.2545298 25.8343399,25.0336497 L21.0025884,20.2018982 C21.8999137,19.1251079 22.4521139,17.7308024 22.4521139,16.2260569 C22.4521139,12.7886109 19.663503,10 16.2260569,10 C12.8024159,10 10,12.8024159 10,16.2260569 C10,19.663503 12.8024159,22.4521139 16.2260569,22.4521139 L16.2260569,22.4521139 Z M16.2260569,11.1320104 C19.0422778,11.1320104 21.3201035,13.4236411 21.3201035,16.2260569 C21.3201035,19.0422778 19.0422778,21.3201035 16.2260569,21.3201035 C13.4098361,21.3201035 11.1320104,19.0284728 11.1320104,16.2260569 C11.1320104,13.4236411 13.4236411,11.1320104 16.2260569,11.1320104 L16.2260569,11.1320104 Z" id="search"></path>
                    </g>
                </g>
            </g>
        </g>
    </g>
</svg>