<?xml version="1.0" encoding="UTF-8"?>
<svg width="16px" height="16px" viewBox="0 0 16 16" version="1.1" xmlns="http://www.w3.org/2000/svg" xmlns:xlink="http://www.w3.org/1999/xlink">
    <!-- Generator: Sketch 40.1 (33804) - http://www.bohemiancoding.com/sketch -->
    <title>shopping-cart</title>
    <desc>Created with Sketch.</desc>
    <defs></defs>
    <g id="Symbols" stroke="none" stroke-width="1" fill="none" fill-rule="evenodd">
        <g id="topbar" transform="translate(-1212.000000, -27.000000)" fill="#95A5A6">
            <g id="shopping-cart">
                <path d="M1212.56634,39.8275862 L1213.22936,39.8275862 C1212.77353,40.6413793 1212.88404,41.6896552 1213.57469,42.3793103 C1213.97527,42.7793103 1214.51398,43 1215.09413,43 C1215.67427,43 1216.19917,42.7793103 1216.61356,42.3793103 C1217.01414,41.9793103 1217.23515,41.4413793 1217.23515,40.862069 C1217.23515,40.4896552 1217.13846,40.1448276 1216.95889,39.8275862 L1219.62481,39.8275862 C1219.16898,40.6413793 1219.27948,41.6896552 1219.97014,42.3793103 C1220.37071,42.7793103 1220.90942,43 1221.48957,43 C1222.06972,43 1222.59462,42.7793103 1223.00901,42.3793103 C1223.40959,41.9793103 1223.6306,41.4413793 1223.6306,40.862069 C1223.6306,40.4896552 1223.5339,40.1448276 1223.35433,39.8275862 L1224.07261,39.8275862 C1224.39031,39.8275862 1224.63895,39.5793103 1224.63895,39.262069 C1224.63895,38.9448276 1224.39031,38.6965517 1224.07261,38.6965517 L1213.13267,38.6965517 L1213.13267,37.5931034 L1225.56442,37.5931034 C1225.81306,37.5931034 1226.03407,37.4275862 1226.10313,37.1793103 L1227.98171,30.3241379 C1228.02315,30.1586207 1227.99552,29.9793103 1227.88502,29.8413793 C1227.77451,29.7034483 1227.60876,29.6206897 1227.443,29.6206897 L1213.13267,29.6206897 L1213.13267,27.5655172 C1213.13267,27.2482759 1212.88404,27 1212.56634,27 C1212.24864,27 1212,27.2482759 1212,27.5655172 L1212,30.1724138 L1212,37.0275862 L1212,39.2482759 C1212,39.5793103 1212.24864,39.8275862 1212.56634,39.8275862 L1212.56634,39.8275862 Z M1220.75748,40.1448276 C1220.95086,39.9517241 1221.1995,39.8413793 1221.47576,39.8413793 C1221.75202,39.8413793 1222.00065,39.9517241 1222.19404,40.1448276 C1222.38742,40.337931 1222.49792,40.5862069 1222.49792,40.862069 C1222.49792,41.137931 1222.38742,41.3862069 1222.19404,41.5793103 C1221.80727,41.9655172 1221.14425,41.9655172 1220.75748,41.5793103 C1220.3569,41.1793103 1220.3569,40.5448276 1220.75748,40.1448276 L1220.75748,40.1448276 Z M1214.37585,40.1448276 C1214.56923,39.9517241 1214.81786,39.8413793 1215.09413,39.8413793 C1215.37039,39.8413793 1215.61902,39.9517241 1215.8124,40.1448276 C1216.00579,40.337931 1216.11629,40.5862069 1216.11629,40.862069 C1216.11629,41.137931 1216.00579,41.3862069 1215.8124,41.5793103 C1215.42564,41.9655172 1214.76261,41.9655172 1214.37585,41.5793103 C1213.97527,41.1793103 1213.97527,40.5448276 1214.37585,40.1448276 L1214.37585,40.1448276 Z M1213.13267,30.737931 L1226.69709,30.737931 L1225.12241,36.4758621 L1213.13267,36.4758621 L1213.13267,30.737931 L1213.13267,30.737931 Z"></path>
            </g>
        </g>
    </g>
</svg>