<?xml version="1.0" encoding="UTF-8"?>
<svg width="20px" height="20px" viewBox="0 0 20 20" version="1.1" xmlns="http://www.w3.org/2000/svg" xmlns:xlink="http://www.w3.org/1999/xlink">
    <!-- Generator: Sketch 40.3 (33839) - http://www.bohemiancoding.com/sketch -->
    <title>Shape</title>
    <desc>Created with Sketch.</desc>
    <defs></defs>
    <g id="Symbols" stroke="none" stroke-width="1" fill="none" fill-rule="evenodd">
        <g id="footer" transform="translate(-1254.000000, -279.000000)" fill="#598DCA">
            <g id="content">
                <g transform="translate(335.000000, 17.000000)">
                    <g id="bottom" transform="translate(0.000000, 250.000000)">
                        <g id="social" transform="translate(888.000000, 12.000000)">
                            <path d="M42.389,6.09433333 C41.516,6.412 40.9643333,7.23133333 41.027,8.128 L41.048,8.474 L40.6986667,8.43166667 C39.4276667,8.26933333 38.317,7.71866667 37.374,6.79333333 L36.913,6.33433333 L36.7943333,6.67333333 C36.543,7.429 36.7036667,8.227 37.2273333,8.76366667 C37.5066667,9.06033333 37.4436667,9.10266667 36.962,8.926 C36.7943333,8.86966667 36.6476667,8.82733333 36.6336667,8.84833333 C36.585,8.898 36.7523333,9.54033333 36.885,9.79466667 C37.0666667,10.148 37.4366667,10.4936667 37.842,10.6986667 L38.1843333,10.861 L37.7793333,10.868 C37.3883333,10.868 37.3743333,10.875 37.4163333,11.0236667 C37.556,11.4826667 38.1076667,11.97 38.7223333,12.182 L39.1553333,12.33 L38.7783333,12.556 C38.2196667,12.8813333 37.563,13.0646667 36.9063333,13.0783333 C36.5916667,13.0853333 36.3333333,13.1136667 36.3333333,13.135 C36.3333333,13.2053333 37.1856667,13.6006667 37.6813333,13.7563333 C39.169,14.2153333 40.9363333,14.0173333 42.2633333,13.2336667 C43.2063333,12.6756667 44.149,11.567 44.5893333,10.4933333 C44.827,9.92166667 45.0643333,8.87633333 45.0643333,8.37533333 C45.0643333,8.05033333 45.0853333,8.008 45.4763333,7.61966667 C45.707,7.39366667 45.9233333,7.14666667 45.9653333,7.076 C46.0353333,6.94166667 46.028,6.94166667 45.672,7.06166667 C45.0783333,7.27366667 44.9943333,7.24533333 45.288,6.92766667 C45.5043333,6.70166667 45.763,6.292 45.763,6.172 C45.763,6.151 45.6583333,6.186 45.5393333,6.24966667 C45.4136667,6.32033333 45.1343333,6.42633333 44.9246667,6.48966667 L44.5476667,6.61 L44.2053333,6.37666667 C44.0166667,6.24966667 43.7516667,6.10833333 43.6116667,6.066 C43.2553333,5.96733333 42.7103333,5.98133333 42.389,6.09433333 L42.389,6.09433333 Z M41,20 C35.4773333,20 31,15.5226667 31,10 C31,4.477 35.4773333,0 41,0 C46.5226667,0 51,4.477 51,10 C51,15.5226667 46.5226667,20 41,20 L41,20 Z" id="Shape"></path>
                        </g>
                    </g>
                </g>
            </g>
        </g>
    </g>
</svg>